<?xml version="1.0" encoding="iso-8859-1"?>
<!-- Generator: Adobe Illustrator 19.0.0, SVG Export Plug-In . SVG Version: 6.00 Build 0)  -->
<svg version="1.1" id="Layer_1" xmlns="http://www.w3.org/2000/svg" xmlns:xlink="http://www.w3.org/1999/xlink" x="0px" y="0px"
	 viewBox="0 0 512 512" style="enable-background:new 0 0 512 512;" xml:space="preserve">
<g>
	<g>
		<path d="M358.422,176.902v-32.22c0-20.322-16.534-36.855-36.856-36.855c-20.322,0-36.855,16.533-36.855,36.855v38.145
			c-2.223-0.42-4.512-0.649-6.855-0.649c-8.176,0-15.736,2.68-21.855,7.202c-6.12-4.522-13.679-7.202-21.855-7.202
			c-2.343,0-4.633,0.229-6.855,0.649v-38.145c0-20.322-16.533-36.855-36.855-36.855c-20.322,0-36.856,16.533-36.856,36.855v32.22H0
			v15c0,27.114,18.794,49.909,44.035,56.076c4.994,21.015,21.496,37.611,42.462,42.732c6.04,25.418,28.918,44.387,56.157,44.387
			h16.502c5.881,17.056,16.233,32.416,30.099,44.34c18.548,15.951,42.252,24.735,66.745,24.735
			c44.806,0,82.979-28.922,96.844-69.075h16.501c27.239,0,50.117-18.969,56.157-44.387c20.965-5.122,37.468-21.718,42.462-42.732
			C493.206,241.813,512,219.016,512,191.902v-15H358.422z M271,219.033c0-3.78,3.075-6.855,6.855-6.855
			c3.78,0,6.855,3.075,6.855,6.855v37.53c0,3.78-3.075,6.855-6.855,6.855c-3.78,0-6.855-3.074-6.855-6.855V219.033z
			 M234.145,212.178c3.78,0,6.855,3.075,6.855,6.855v11.1c-1.73-3.493-4.038-6.77-6.942-9.675c-1.827-1.828-3.808-3.409-5.89-4.772
			C229.343,213.595,231.58,212.178,234.145,212.178z M183.578,144.683c0-3.78,3.076-6.855,6.856-6.855
			c3.78,0,6.855,3.075,6.855,6.855v66.575c-4.944,1.493-9.636,4.045-13.711,7.654V144.683z M159.113,305.098h-16.459
			c-9.767,0-18.364-5.08-23.306-12.731h23.103v-30h-42.258c-9.767,0-18.365-5.08-23.306-12.732h44.385v-30h-63.54
			c-9.769,0-18.375-5.077-23.316-12.731h119.162v84.34l49.571-49.571c2.673-2.674,7.022-2.673,9.695,0
			c2.673,2.673,2.673,7.022,0,9.695L159.113,305.098z M256,374.173c-17.318,0-34.075-6.208-47.184-17.481
			c-11.089-9.536-19.007-22.163-22.76-36.11l31.263-31.263c5.134,2.64,10.886,4.101,16.826,4.101c8.176,0,15.736-2.68,21.855-7.202
			c6.12,4.522,13.679,7.202,21.855,7.202c20.322,0,36.855-16.533,36.855-36.855V144.683c0-3.78,3.075-6.855,6.855-6.855
			c3.78,0,6.856,3.075,6.856,6.855v157.068h0.001C328.422,341.685,295.934,374.173,256,374.173z M454.268,219.634h-63.54v30h44.385
			c-4.942,7.652-13.539,12.732-23.306,12.732h-42.258v30h23.103c-4.942,7.652-13.539,12.731-23.306,12.731h-10.984
			c0.036-1.112,0.06-98.195,0.06-98.195h119.162C472.643,214.557,464.037,219.634,454.268,219.634z"/>
	</g>
</g>
<g>
</g>
<g>
</g>
<g>
</g>
<g>
</g>
<g>
</g>
<g>
</g>
<g>
</g>
<g>
</g>
<g>
</g>
<g>
</g>
<g>
</g>
<g>
</g>
<g>
</g>
<g>
</g>
<g>
</g>
</svg>
